HIERARCHY
ROOT Hips
{
	OFFSET 50.846802 -36.193817 84.736794
	CHANNELS 6 Xposition Yposition Zposition Xrotation Yrotation Zrotation
	JOINT spine
	{
		OFFSET 0.000000 -0.342407 5.954376
		CHANNELS 3 Xrotation Yrotation Zrotation
		JOINT spine1
		{
			OFFSET 0.000000 0.000000 8.856018
			CHANNELS 3 Xrotation Yrotation Zrotation
			JOINT spine2
			{
				OFFSET 0.000000 -0.000004 8.485672
				CHANNELS 3 Xrotation Yrotation Zrotation
				JOINT Neck
				{
					OFFSET 0.000000 -1.038704 21.786308
					CHANNELS 3 Xrotation Yrotation Zrotation
					JOINT Head
					{
						OFFSET 0.000000 0.000000 6.582199
						CHANNELS 3 Xrotation Yrotation Zrotation
						End Site
						{
							OFFSET 0.000000 5.254356 15.932602
						}
					}
				}
				JOINT RightShoulder
				{
					OFFSET -3.573071 0.497524 9.163864
					CHANNELS 3 Xrotation Yrotation Zrotation
					JOINT RightArm
					{
						OFFSET 0.000000 -0.000004 12.019203
						CHANNELS 3 Xrotation Yrotation Zrotation
						JOINT RightArmRoll
						{
							OFFSET 0.000000 0.000000 6.067535
							CHANNELS 3 Xrotation Yrotation Zrotation
							JOINT RightForeArm
							{
								OFFSET 0.000000 -0.000004 17.672592
								CHANNELS 3 Xrotation Yrotation Zrotation
								JOINT RightForeArmRoll
								{
									OFFSET 0.000000 0.000000 6.808716
									CHANNELS 3 Xrotation Yrotation Zrotation
									JOINT RightHand
									{
										OFFSET 0.000000 0.000000 13.663605
										CHANNELS 3 Xrotation Yrotation Zrotation
										End Site
										{
											OFFSET 0.000000 0.000000 0.100006
										}
									}
								}
							}
						}
					}
				}
				JOINT LeftShoulder
				{
					OFFSET 3.573071 0.497524 9.163864
					CHANNELS 3 Xrotation Yrotation Zrotation
					JOINT LeftArm
					{
						OFFSET 0.000000 -0.000004 12.019203
						CHANNELS 3 Xrotation Yrotation Zrotation
						JOINT LeftArmRoll
						{
							OFFSET 0.000000 0.000000 6.067551
							CHANNELS 3 Xrotation Yrotation Zrotation
							JOINT LeftForeArm
							{
								OFFSET 0.000000 -0.000004 17.672607
								CHANNELS 3 Xrotation Yrotation Zrotation
								JOINT LeftForeArmRoll
								{
									OFFSET 0.000000 0.000000 6.808716
									CHANNELS 3 Xrotation Yrotation Zrotation
									JOINT LeftHand
									{
										OFFSET 0.000000 0.000000 13.663605
										CHANNELS 3 Xrotation Yrotation Zrotation
										End Site
										{
											OFFSET 0.000000 0.000000 0.100006
										}
									}
								}
							}
						}
					}
				}
			}
		}
	}
	JOINT RightUpLeg
	{
		OFFSET -5.277740 0.811859 -0.967796
		CHANNELS 3 Xrotation Yrotation Zrotation
		JOINT RightUpLegRoll
		{
			OFFSET 0.000000 0.000000 16.021400
			CHANNELS 3 Xrotation Yrotation Zrotation
			JOINT RightLeg
			{
				OFFSET 0.000000 0.000004 -19.840103
				CHANNELS 3 Xrotation Yrotation Zrotation
				JOINT RightLegRoll
				{
					OFFSET 0.000000 -0.000004 19.904999
					CHANNELS 3 Xrotation Yrotation Zrotation
					JOINT RightFoot
					{
						OFFSET 0.000000 -0.000004 16.567497
						CHANNELS 3 Xrotation Yrotation Zrotation
						JOINT RightToeBase
						{
							OFFSET 0.000000 -0.000004 13.849609
							CHANNELS 3 Xrotation Yrotation Zrotation
							End Site
							{
								OFFSET 0.005871 0.773117 6.707275
							}
						}
					}
				}
			}
		}
	}
	JOINT LeftUpLeg
	{
		OFFSET 5.277740 0.811859 -0.967796
		CHANNELS 3 Xrotation Yrotation Zrotation
		JOINT LeftUpLegRoll
		{
			OFFSET 0.000000 0.000000 16.021500
			CHANNELS 3 Xrotation Yrotation Zrotation
			JOINT LeftLeg
			{
				OFFSET 0.000000 -0.000004 19.840004
				CHANNELS 3 Xrotation Yrotation Zrotation
				JOINT LeftLegRoll
				{
					OFFSET 0.000000 -0.000004 20.089012
					CHANNELS 3 Xrotation Yrotation Zrotation
					JOINT LeftFoot
					{
						OFFSET 0.000000 -0.000004 16.383499
						CHANNELS 3 Xrotation Yrotation Zrotation
						JOINT LeftToeBase
						{
							OFFSET 0.000000 0.000000 13.849594
							CHANNELS 3 Xrotation Yrotation Zrotation
							End Site
							{
								OFFSET -0.026310 0.773113 6.707275
							}
						}
					}
				}
			}
		}
	}
}
MOTION
Frames: 5
Frame Time: 0.041667
49.960205 -8.914776 70.478683 31.189683 5.733990 8.052989 1.989870 -1.212520 0.232501 7.989553 -2.412195 0.516538 9.635252 -2.405808 0.548570 17.279170 6.860391 -5.987722 -2.510606 -11.709455 -5.853623 -166.213992 -111.322391 -165.793225 119.213657 -59.144575 113.024973 0.000006 -0.000006 0.000008 -0.027890 3.639950 -1.990618 -0.000002 0.000004 -3.011609 -5.000162 -7.999929 -0.000001 -6.628301 58.736710 7.745191 129.478858 41.161893 -110.198887 0.000002 0.000000 -0.000001 -0.027944 -3.641729 1.990855 -0.000001 -0.000013 3.011600 -5.000172 7.999929 -0.000004 -82.525686 -181.531853 -4.173667 179.999991 0.000005 -0.580998 123.706829 1.457425 -1.930528 0.000000 0.000004 1.066210 70.903757 6.889712 1.999355 25.456953 -7.355613 0.000001 -82.669065 185.168901 4.571756 -0.000002 -0.000004 -0.591124 -53.995033 -2.424670 0.724751 0.000000 -0.000005 -0.772072 66.289984 -7.075512 -1.862350 25.456858 7.355610 0.000020 
49.965603 -9.000708 70.585793 31.153128 5.738783 8.032489 1.983668 -1.208236 0.231652 7.977103 -2.403712 0.514560 9.622808 -2.397347 0.546459 17.182312 6.773310 -5.982098 -2.507370 -11.674219 -5.848003 -166.305039 -111.268781 -165.903861 119.144795 -59.108279 112.953830 0.000003 -0.000005 0.000004 -0.027887 3.639952 -1.990618 -0.000003 0.000005 -3.011608 -5.000165 -7.999931 0.000002 -6.567651 58.821275 7.680361 129.358906 41.176093 -110.133952 0.000002 0.000000 -0.000002 -0.027945 -3.641750 1.990856 -0.000000 -0.000013 3.011600 -5.000170 7.999930 -0.000006 -82.282804 -181.563285 -4.180141 179.999991 0.000005 -0.580998 123.895971 1.461832 -1.921511 -0.000000 0.000004 1.062218 70.908176 6.888922 2.001147 25.456955 -7.355614 -0.000000 -82.435302 185.131936 4.599204 0.000001 -0.000004 -0.591025 -53.823602 -2.421369 0.724370 0.000000 -0.000005 -0.767772 66.305933 -7.074582 -1.863824 25.456858 7.355610 0.000020 
49.979202 -9.089685 70.680992 31.116505 5.744053 8.010816 1.976817 -1.204103 0.230795 7.963353 -2.395533 0.512625 9.609050 -2.389191 0.544315 17.095084 6.685434 -5.976550 -2.512778 -11.635605 -5.842779 -166.403079 -111.220191 -166.021217 119.081056 -59.062763 112.882113 0.000003 -0.000006 0.000007 -0.027889 3.639950 -1.990621 -0.000002 0.000004 -3.011610 -5.000163 -7.999933 0.000002 -6.504591 58.908715 7.612995 129.236782 41.191887 -110.068560 0.000000 -0.000000 -0.000001 -0.027947 -3.641769 1.990854 -0.000002 -0.000014 3.011600 -5.000175 7.999929 -0.000005 -82.040175 -181.595824 -4.186632 179.999991 0.000005 -0.580999 124.085686 1.466226 -1.912501 0.000000 0.000004 1.058228 70.912171 6.888172 2.002972 25.456953 -7.355614 0.000001 -82.202495 185.094315 4.625912 -0.000003 -0.000004 -0.590911 -53.652809 -2.418632 0.723742 0.000000 -0.000005 -0.763495 66.321997 -7.073620 -1.865086 25.456856 7.355611 0.000020 
49.993401 -9.170792 70.777695 31.079693 5.749874 7.988242 1.969318 -1.200132 0.229924 7.948285 -2.387668 0.510734 9.593971 -2.381350 0.542130 17.016576 6.597369 -5.971357 -2.527189 -11.594616 -5.838362 -166.511624 -111.177974 -166.148900 119.027179 -59.006851 112.813517 0.000002 -0.000004 0.000007 -0.027889 3.639952 -1.990619 -0.000001 0.000003 -3.011610 -5.000164 -7.999931 -0.000001 -6.439966 58.999516 7.544106 129.112582 41.208249 -110.002608 0.000002 0.000000 -0.000002 -0.027951 -3.641790 1.990856 0.000000 -0.000013 3.011599 -5.000174 7.999930 -0.000004 -81.797936 -181.629647 -4.192347 179.999991 0.000004 -0.580999 124.275811 1.471153 -1.902681 0.000000 0.000004 1.054239 70.915853 6.887416 2.004717 25.456957 -7.355616 0.000002 -81.970692 185.056135 4.652392 -0.000008 -0.000005 -0.590770 -53.482762 -2.416402 0.722879 0.000000 -0.000005 -0.759245 66.338151 -7.072624 -1.866536 25.456858 7.355610 0.000021 
50.004604 -9.263365 70.869194 31.042831 5.756147 7.964714 1.961231 -1.196279 0.229042 7.932063 -2.380056 0.508871 9.577749 -2.373772 0.539911 16.945901 6.509175 -5.966367 -2.549468 -11.551557 -5.834507 -166.629623 -111.141542 -166.285859 118.979641 -58.942668 112.744785 0.000002 -0.000005 0.000008 -0.027891 3.639951 -1.990618 -0.000000 0.000005 -3.011611 -5.000159 -7.999928 -0.000000 -6.373609 59.093171 7.473471 128.985568 41.225796 -109.935248 0.000000 0.000000 -0.000001 -0.027951 -3.641801 1.990853 -0.000002 -0.000014 3.011602 -5.000173 7.999929 -0.000004 -81.555826 -181.664577 -4.198885 179.999991 0.000006 -0.580998 124.466414 1.476051 -1.892892 -0.000000 0.000004 1.050259 70.919213 6.886663 2.006583 25.456948 -7.355615 0.000002 -81.739558 185.017025 4.680418 -0.000006 -0.000004 -0.590607 -53.313229 -2.414651 0.721866 0.000000 -0.000005 -0.755024 66.354420 -7.071680 -1.867987 25.456858 7.355609 0.000021 
